<?xml version="1.0" encoding="UTF-8"?>
<svg xmlns="http://www.w3.org/2000/svg" fill="none" viewBox="0 0 24 24"><path fill="#20607E" d="M11.293 12L7.646 8.354l.708-.708L12 11.293l3.646-3.647.708.708L12.707 12l3.647 3.646-.707.708L12 12.707l-3.646 3.646-.708-.707L11.293 12z" style="fill: #ffffff;"/><path fill="#20607E" fill-rule="evenodd" d="M12 22c5.523 0 10-4.477 10-10S17.523 2 12 2 2 6.477 2 12s4.477 10 10 10zm0-1a9 9 0 1 0 0-18 9 9 0 0 0 0 18z" clip-rule="evenodd" style="fill: #ffffff;"/></svg>